<svg xmlns="http://www.w3.org/2000/svg" width="228.017" height="112.883" viewBox="0 0 228.017 112.883">
  <g id="xFinal-Logo-e1589267434907.png.pagespeed.ic.aVJBPaiZPY" transform="translate(-0.384 148.844)">
    <path id="Path_1" data-name="Path 1" d="M4.938-147.042c-1.461,1.461-1.768,2.383-1.384,3.69,1.076,3.613,3.306,4.535,6.534,2.844,2.152-1.153,2-5.689-.231-7.226C7.552-149.348,7.167-149.271,4.938-147.042Z" transform="translate(-0.698)" fill="#fff"/>
    <path id="Path_2" data-name="Path 2" d="M86.537-141.235c-1.384.461-.769,5.842,1.076,9.84a21.54,21.54,0,0,0,4.612,6.227c5,4.074,8.84,4.843,25.445,4.843h14.76l2.076,2a12.37,12.37,0,0,1,1.384,14.836c-2.383,3.613-4.612,3.921-28.6,3.921H85v23.831h47.046l2.537,2.537c3.306,3.306,4.074,7.149,2.306,11.762-2.152,5.765-3,6-20.679,6.15-9.917.077-16.3.384-17.758,1C91.227-51.37,86.768-45.682,86-38.456l-.461,4.228h24.215c26.905,0,27.751-.154,34.977-5.074,4.689-3.229,8.84-8.917,10.993-15.3,1.384-3.844,1.614-6.073,1.384-13.145-.231-7.995-.384-8.763-3.152-14.3a66.292,66.292,0,0,1-2.844-6.38,10.583,10.583,0,0,1,1.537-2.767c4.766-6.611,6.15-20.756,3-30.057-2.767-8.379-8.225-14.606-15.682-17.988-3.69-1.691-4.612-1.768-28.289-2C98.3-141.388,86.922-141.388,86.537-141.235Z" transform="translate(-19.569 -1.733)" fill="#fff"/>
    <path id="Path_3" data-name="Path 3" d="M187.746-141.07c-.307.231-.307,2.46.077,5a17.866,17.866,0,0,0,8.687,13.068l3.767,2.306,16.758.384c16.3.384,16.758.461,18.68,2.229,2.614,2.46,3.844,6.38,3.306,10.685a7.839,7.839,0,0,1-3.152,6.073L233.1-98.79H186.9l.231,25.137c.231,24.753.231,25.291,2,28.674a35.337,35.337,0,0,0,3.459,5.3c2.383,2.537,8.84,5.458,12.3,5.458h2.844V-53.743c0-10.762.231-19.756.615-19.91.307-.231,8.763,7.687,18.834,17.527C239.635-43.9,246.553-37.6,249.013-36.447c4.689,2.229,10.532,2.767,14.3,1.23,3.536-1.537,8.225-5,8.225-6.227,0-.461-5.074-5.842-11.223-11.992S246.707-67.272,243.786-70.5L238.4-76.42l3.69-1.845c4.3-2.229,10.916-8.917,13.222-13.453,5.15-10.147,5-24.907-.461-34.823-2.691-5-8.225-10.378-12.992-12.607-3.844-1.845-4.3-1.845-28.75-2.076C199.507-141.378,188.053-141.3,187.746-141.07Z" transform="translate(-43.136 -1.744)" fill="#fff"/>
    <path id="Path_4" data-name="Path 4" d="M60.769-134.344a4.814,4.814,0,0,0-1.691,5.919c1.922,4.151,7.534,2.691,7.534-2C66.612-133.5,63-135.882,60.769-134.344Z" transform="translate(-13.481 -3.242)" fill="#fff"/>
    <path id="Path_5" data-name="Path 5" d="M84.978-113.825c-4.766,2.614-2.921,9.763,2.614,10.224,2.229.154,3.075-.154,4.382-1.845a8.425,8.425,0,0,0,1.614-3.075,7.233,7.233,0,0,0-3.613-5.612C87.668-115.209,87.514-115.209,84.978-113.825Z" transform="translate(-18.932 -7.849)" fill="#fff"/>
    <path id="Path_6" data-name="Path 6" d="M49.235-110.444c-2.844,3.152,1.845,7.457,4.843,4.459,1.384-1.384,1.076-4.3-.538-5.227C51.464-112.289,50.849-112.212,49.235-110.444Z" transform="translate(-11.094 -8.54)" fill="#fff"/>
    <path id="Path_7" data-name="Path 7" d="M3.471-83.855A7.729,7.729,0,0,0,.934-80.473c-.769,1.845-.769,2.614.231,4.612,2.306,4.382,6.688,5.227,9.993,1.922C16.54-79.4,9.621-88.237,3.471-83.855Z" transform="translate(0 -14.757)" fill="#fff"/>
    <path id="Path_8" data-name="Path 8" d="M57.491-79.729c-6.073,3.229-5.689,12.3.538,15.3,3.382,1.537,6.073,1.076,8.994-1.691a7.977,7.977,0,0,0,1.768-9.763C66.562-80.5,61.8-82.112,57.491-79.729Z" transform="translate(-12.201 -15.731)" fill="#fff"/>
  </g>
</svg>
